/* XPM */
static char * bitcoin32_xpm[] = {
"32 32 108 2",
"  	c None",
". 	c #000000",
"+ 	c #010100",
"@ 	c #050400",
"# 	c #A48300",
"$ 	c #927500",
"% 	c #030300",
"& 	c #635000",
"* 	c #FFD300",
"= 	c #806700",
"- 	c #CCA400",
"; 	c #010000",
"> 	c #2C2400",
", 	c #FFD400",
"' 	c #FFCD00",
") 	c #604D00",
"! 	c #FFD200",
"~ 	c #927600",
"{ 	c #090700",
"] 	c #F8C700",
"^ 	c #403300",
"/ 	c #FFD500",
"( 	c #534300",
"_ 	c #D7AC00",
": 	c #D7AD00",
"< 	c #201A00",
"[ 	c #211B00",
"} 	c #A28300",
"| 	c #FFCE00",
"1 	c #FFD900",
"2 	c #F1C200",
"3 	c #CBA300",
"4 	c #2D2400",
"5 	c #E0B400",
"6 	c #FFD100",
"7 	c #997B00",
"8 	c #F5C500",
"9 	c #FFCF00",
"0 	c #997A00",
"a 	c #C09B00",
"b 	c #BF9A00",
"c 	c #6C5700",
"d 	c #7E6500",
"e 	c #ECBE00",
"f 	c #DAAF00",
"g 	c #6E5800",
"h 	c #705A00",
"i 	c #CAA300",
"j 	c #FFD000",
"k 	c #8F7300",
"l 	c #B28F00",
"m 	c #725C00",
"n 	c #7C6400",
"o 	c #A78600",
"p 	c #A08100",
"q 	c #7A6200",
"r 	c #866C00",
"s 	c #261E00",
"t 	c #B08E00",
"u 	c #352B00",
"v 	c #B89400",
"w 	c #060500",
"x 	c #C49D00",
"y 	c #624F00",
"z 	c #4D3E00",
"A 	c #BD9800",
"B 	c #BC9700",
"C 	c #AC8A00",
"D 	c #2E2500",
"E 	c #7B6300",
"F 	c #C8A100",
"G 	c #816700",
"H 	c #453700",
"I 	c #564500",
"J 	c #473900",
"K 	c #4A3C00",
"L 	c #846A00",
"M 	c #715B00",
"N 	c #FFD800",
"O 	c #E4B700",
"P 	c #433600",
"Q 	c #B69200",
"R 	c #655100",
"S 	c #141000",
"T 	c #C59E00",
"U 	c #4E3F00",
"V 	c #FFE000",
"W 	c #211A00",
"X 	c #B79400",
"Y 	c #FFD700",
"Z 	c #CAA200",
"` 	c #0C0A00",
" .	c #B49100",
"..	c #4C3D00",
"+.	c #C59F00",
"@.	c #0B0900",
"#.	c #504100",
"$.	c #B79300",
"%.	c #161200",
"&.	c #9F8000",
"*.	c #9A7C00",
"=.	c #A88700",
"-.	c #987A00",
";.	c #9D7E00",
">.	c #9E7F00",
",.	c #A68500",
"'.	c #A38300",
").	c #A28200",
"                                                                ",
"                                                                ",
"                                                                ",
"                                                                ",
"                                                                ",
"                                                                ",
"                                                                ",
"  .                                                         .   ",
"  . .                         + +                         . .   ",
"  . @ +                     . # # .                     + @ .   ",
"  . $ %                   . & * * & .                   % $ .   ",
"  . = - .               ; > , ' ' , > ;               . - = .   ",
"    ) ! ~ .             { ] ' ' ' ' ] {             . ~ ! )     ",
"    ^ * / ( .         . _ ' ' ' ' ' ' : .         . ( / * ^     ",
"    < / ' ! [ +     . } | ' ' ' ' ' ' | } .     + [ ! ' / <     ",
"    . 1 ' ' 2 %   . & * ' ' ' ' ' ' ' ' * & .   % 2 ' ' 1 .     ",
"    . | ' ' ' 3 . 4 , ' ' ' ' ' ' ' ' ' ' , 4 . 3 ' ' ' | .     ",
"    . 5 ' ' ' 6 7 8 ' ' | | ' ' ' ' ' 9 ' ' 8 0 9 ' ' ' 5 .     ",
"    . a ' ' b c d e ' f g h i j ' 6 k ) l ! m = n o 9 ' a .     ",
"    . p ' ' q & r s , t u v w x j y z A B j C D E F | ' p .     ",
"    . G ' ' q H I J ! t K 6 L M N @ O ' ' ' ! P Q ' ' ' = .     ",
"      ) j ' q R S T ' t U V J k / W X Y ! ' ! P Q ' ' j )       ",
"      ^ * ' E r Z ` *  .. @ ..9 ' +.. @.#.6 ! H $.' ' * ^       ",
"      %.&.7 p &.*.=.-.;.=.=.>.7 7 7 ,.'.).7 -.'.;.7 7 &.%.      ",
"      . . . . . . . . . . . . . . . . . . . . . . . . . .       ",
"                                                                ",
"                                                                ",
"                                                                ",
"                                                                ",
"                                                                ",
"                                                                ",
"                                                                "};
