/* XPM */
static char * bitcoin64_xpm[] = {
"48 48 172 2",
"  	c None",
". 	c #000000",
"+ 	c #010100",
"@ 	c #625000",
"# 	c #1B1600",
"$ 	c #382D00",
"% 	c #EEBF00",
"& 	c #584600",
"* 	c #574600",
"= 	c #130F00",
"- 	c #CCA400",
"; 	c #FFCF00",
"> 	c #3C3000",
", 	c #EFC000",
"' 	c #1D1700",
") 	c #AB8900",
"! 	c #FFD500",
"~ 	c #FFCD00",
"{ 	c #AB8A00",
"] 	c #1F1900",
"^ 	c #FFD900",
"/ 	c #D6AB00",
"( 	c #977A00",
"_ 	c #FFD000",
": 	c #191400",
"< 	c #F5C500",
"[ 	c #FFD200",
"} 	c #AE8C00",
"| 	c #5B4900",
"1 	c #FBC900",
"2 	c #141000",
"3 	c #E0B400",
"4 	c #FFCE00",
"5 	c #735C00",
"6 	c #282000",
"7 	c #EABC00",
"8 	c #0E0C00",
"9 	c #CBA300",
"0 	c #FCCB00",
"a 	c #342A00",
"b 	c #E4B700",
"c 	c #010200",
"d 	c #0A0800",
"e 	c #B69200",
"f 	c #F7C600",
"g 	c #C09B00",
"h 	c #050400",
"i 	c #A08100",
"j 	c #CFA600",
"k 	c #100D00",
"l 	c #836900",
"m 	c #8B7000",
"n 	c #9B7D00",
"o 	c #030300",
"p 	c #453700",
"q 	c #765F00",
"r 	c #FFD600",
"s 	c #5C4A00",
"t 	c #201A00",
"u 	c #201B00",
"v 	c #604D00",
"w 	c #FBCA00",
"x 	c #483A00",
"y 	c #DBB100",
"z 	c #4B3C00",
"A 	c #F6C500",
"B 	c #C9A200",
"C 	c #CAA200",
"D 	c #EDBF00",
"E 	c #352B00",
"F 	c #F1C200",
"G 	c #D5AB00",
"H 	c #C39D00",
"I 	c #D2A800",
"J 	c #D0A700",
"K 	c #D7AD00",
"L 	c #ECBE00",
"M 	c #FECC00",
"N 	c #E7BA00",
"O 	c #C29C00",
"P 	c #BC9600",
"Q 	c #E5B900",
"R 	c #DEB200",
"S 	c #E1B500",
"T 	c #F2C300",
"U 	c #ECBD00",
"V 	c #D6AC00",
"W 	c #120F00",
"X 	c #BC9700",
"Y 	c #6A5600",
"Z 	c #1A1500",
"` 	c #060500",
" .	c #161200",
"..	c #A88700",
"+.	c #FFD300",
"@.	c #9C7D00",
"#.	c #090700",
"$.	c #040300",
"%.	c #9E7F00",
"&.	c #0B0900",
"*.	c #E7B900",
"=.	c #D8AE00",
"-.	c #D3AA00",
";.	c #463800",
">.	c #705A00",
",.	c #0D0B00",
"'.	c #D1A800",
").	c #524200",
"!.	c #120E00",
"~.	c #3F3300",
"{.	c #EBBD00",
"].	c #C8A100",
"^.	c #F3C400",
"/.	c #F7C700",
"(.	c #181300",
"_.	c #5D4B00",
":.	c #DFB400",
"<.	c #DBB000",
"[.	c #D2A900",
"}.	c #A48400",
"|.	c #D9AE00",
"1.	c #0C0A00",
"2.	c #7A6200",
"3.	c #1E1800",
"4.	c #2D2400",
"5.	c #DEB300",
"6.	c #CEA600",
"7.	c #A48300",
"8.	c #675300",
"9.	c #060400",
"0.	c #0F0C00",
"a.	c #E8BB00",
"b.	c #FFDB00",
"c.	c #574500",
"d.	c #080600",
"e.	c #C59E00",
"f.	c #080700",
"g.	c #524300",
"h.	c #FFDA00",
"i.	c #816700",
"j.	c #E2B500",
"k.	c #EEC000",
"l.	c #534300",
"m.	c #725C00",
"n.	c #312700",
"o.	c #8A6F00",
"p.	c #020200",
"q.	c #191500",
"r.	c #322800",
"s.	c #151200",
"t.	c #D9AF00",
"u.	c #0E0B00",
"v.	c #5F4D00",
"w.	c #FFDF00",
"x.	c #FFD800",
"y.	c #947700",
"z.	c #FFD700",
"A.	c #CAA300",
"B.	c #967900",
"C.	c #927500",
"D.	c #896E00",
"E.	c #9A7C00",
"F.	c #B59100",
"G.	c #866C00",
"H.	c #846A00",
"I.	c #AD8C00",
"J.	c #FDCB00",
"K.	c #FCCA00",
"L.	c #4C3D00",
"M.	c #493A00",
"N.	c #493B00",
"O.	c #4A3C00",
"                                                                                                ",
"                                                                                                ",
"                                                                                                ",
"                                                                                                ",
"                                                                                                ",
"                                                                                                ",
"                                                                                                ",
"                                                                                                ",
"                                                                                                ",
"                                                                                                ",
"  .                                                                                         .   ",
"  . .                                         . .                                         . .   ",
"    . .                                     . + + .                                     . .     ",
"    . . .                                   . @ @ .                                   . . .     ",
"    . # . .                               . $ % % $ .                               . . # .     ",
"    . & * .                             . = - ; ; - = .                             . * & .     ",
"    . > , ' .                         . . ) ! ~ ~ ! { . .                         . ' , > .     ",
"    . ] ^ / . .                     . . ( _ ~ ~ ~ ~ _ ( . .                     . . / ^ ] .     ",
"    . : < [ } . .                   . | 1 ~ ~ ~ ~ ~ ~ 1 | .                   . . } [ < : .     ",
"    . 2 3 4 ~ 5 . .               . 6 7 4 ~ ~ ~ ~ ~ ~ 4 7 6 .               . . 5 ~ 4 3 2 .     ",
"    . 8 9 4 ~ 0 a .             . + b _ ~ ~ ~ ~ ~ ~ ~ ~ _ b c .             . a 0 ~ 4 9 8 .     ",
"      d e 4 ~ 4 f 2 .         . . g _ ~ ~ ~ ~ ~ ~ ~ ~ ~ ~ _ g . .         . 2 f 4 ~ 4 e d       ",
"      h i ; ~ ~ _ j k .     . . l ~ ~ ~ ~ ~ ~ ~ ~ ~ ~ ~ ~ ~ ~ l . .     . k j _ ~ ~ ; i h       ",
"      . m ; ~ ~ ~ 4 n o .   . p ; ~ ~ ~ ~ ~ ~ ~ ~ ~ ~ ~ ~ ~ ~ ; p .   . o n 4 ~ ~ ~ ; m .       ",
"      . q 4 ~ ~ ~ ~ r s . . t 4 4 ~ ~ ~ ~ ~ ~ ~ ~ ~ ~ ~ ~ ~ ~ 4 ; u . . s r ~ ~ ~ ~ 4 q .       ",
"      . v w ~ ~ ~ ~ 4 ; x k y ; ~ ~ ~ ~ ~ ~ ~ ~ ~ ~ ~ ~ ~ ~ ~ ~ ; y k x ; 4 ~ ~ ~ ~ w v .       ",
"      . z A ~ ~ ~ ~ 4 ; % B ~ ~ ~ ~ 4 4 ~ ~ ~ ~ ~ ~ ~ ~ 4 ; ~ ~ ~ ~ C D 4 ~ ~ ~ ~ ~ A z .       ",
"      . E F ~ ~ ~ 1 G H I D ~ ~ 4 , J H K L M ~ ~ ~ ~ N O P Q 0 ~ R S S 3 R T ~ ~ ~ F E .       ",
"      . t U ~ ~ ~ V . # k W X ; r Y . Z `  ...M ~ +.@.k d Z W F ; . #.. . $.%._ ~ ~ U t .       ",
"        &.*.~ ~ ~ =.. -.S a ;.! ! >.,.'.F ).k 7 4 =.!.~.F % b ~ ~ {.].&.>.^./.~ ~ ~ *.&.        ",
"        . S ~ ~ ~ =.. ].].(._.+.! >.8 :.4 <.. [.; }.. X [ ~ ~ ~ ~ 4 |.1.2.! ~ ~ ~ ~ S .         ",
"        . ].4 ~ ~ =.. 3.. 4.b 4 ! >.8 :.4 5.. 6._ i . O [ ~ ~ ~ ~ 4 |.1.2.! ~ ~ ~ 4 ]..         ",
"        . 7._ ~ ~ =.. =.8.9.Q ~ ! >.0.a.b.c.d.N 4 e.f.g.h.r [ ~ ~ 4 |.1.2.! ~ ~ ~ _ 7..         ",
"        . i.[ ~ ~ =.. j.k.= l.+.! m.. n.8 #.o.M ~ +.l.p.q.r.s.S 4 4 t.u.2.! ~ ~ ~ [ i..         ",
"        . v.w.x.x.w y.~ z.A.B.z.b.-.C.D.E.-.b.x.x.x.h.F.G.H.I.J.x.x.K.}.-.b.x.x.x.w.v..         ",
"        . 2 L.M.M.N.L.N.M.z L.M.M.O.L.L.L.O.M.M.M.M.N.z z z z N.M.M.N.z O.M.M.M.M.L.2 .         ",
"        . . . . . . . . . . . . . . . . . . . . . . . . . . . . . . . . . . . . . . . .         ",
"                                                                                                ",
"                                                                                                ",
"                                                                                                ",
"                                                                                                ",
"                                                                                                ",
"                                                                                                ",
"                                                                                                ",
"                                                                                                ",
"                                                                                                ",
"                                                                                                ",
"                                                                                                "};
