/* XPM */
static char * bitcoin16_xpm[] = {
"16 16 56 1",
" 	c None",
".	c #000000",
"+	c #292100",
"@	c #806600",
"#	c #E7B900",
"$	c #E7BA00",
"%	c #7F6600",
"&	c #AF8D00",
"*	c #765F00",
"=	c #B89400",
"-	c #FFCD00",
";	c #896E00",
">	c #FFD500",
",	c #403400",
"'	c #7D6500",
")	c #FFD100",
"!	c #6B5600",
"~	c #FFCE00",
"{	c #FFD300",
"]	c #604E00",
"^	c #FFD600",
"/	c #FFD400",
"(	c #FFD700",
"_	c #645000",
":	c #564600",
"<	c #755E00",
"[	c #816800",
"}	c #EDBF00",
"|	c #A18100",
"1	c #E1B500",
"2	c #6A5600",
"3	c #E0B400",
"4	c #665300",
"5	c #8C7100",
"6	c #3C3000",
"7	c #FFDB00",
"8	c #5D4B00",
"9	c #574600",
"0	c #BC9700",
"a	c #604D00",
"b	c #8B7000",
"c	c #FDCB00",
"d	c #A58400",
"e	c #161200",
"f	c #DDB200",
"g	c #917500",
"h	c #896F00",
"i	c #C8A100",
"j	c #4F4000",
"k	c #AB8900",
"l	c #C9A200",
"m	c #4E3F00",
"n	c #A98800",
"o	c #A58500",
"p	c #C09B00",
"q	c #DAAF00",
"                ",
"                ",
"                ",
"                ",
" .     ++     . ",
" @    .#$.    % ",
" &*   =--=   *& ",
" ;>, ')--)' ,>; ",
" !~{]^/~-/(_{~! ",
" :^<[}_|12345>: ",
" 678910abc)d1/6 ",
" efghijklmnopqe ",
"                ",
"                ",
"                ",
"                "};
